<?xml version="1.0" encoding="utf-8"?>
<!-- Generator: Adobe Illustrator 16.0.0, SVG Export Plug-In . SVG Version: 6.00 Build 0)  -->
<!DOCTYPE svg PUBLIC "-//W3C//DTD SVG 1.1//EN" "http://www.w3.org/Graphics/SVG/1.1/DTD/svg11.dtd">
<svg version="1.1" xmlns="http://www.w3.org/2000/svg" xmlns:xlink="http://www.w3.org/1999/xlink" x="0px" y="0px" width="612px"
	 height="792px" viewBox="0 0 612 792" enable-background="new 0 0 612 792" xml:space="preserve">
<g id="Layer_1">
	<path fill="#FFFFFF" stroke="#000000" stroke-miterlimit="10" d="M546.434,345.265c0.967,4.207,2.065,8.333,2.066,13.258
		c0.002,7.752-0.06,14.576-2.377,21.599c-0.826,2.502-2.241,5.427-2.647,7.989c-0.495,3.126,0.941,6.908,0.086,9.91
		c-0.346,1.212-2.221,1.663-2.586,2.994c-0.812,2.963,0.13,7.129,0.022,10.198c-0.132,3.795-0.583,7.584-1.486,11.175
		c-1.38,5.482-3.573,11.374-6.393,16.225c-2.78,4.784-7.26,7.158-10.258,11.885c-3.306,5.212-9.404,7.421-12.357,12.5
		c-3.825,6.577-3.516,14.57-9.502,20.776c-6.522,6.761-18.375,9.006-26.988,11.751c-7.806,2.488-15.976,4.532-22.9,9.588
		c-7.532,5.498-12.121,11.208-11.139,20.885c0.794,7.829,0.336,8.566-6.072,13.294c-4.328,3.192-9.665,6.008-15.014,6.831
		c-6.014,0.925-12.257,0.313-18.292,1.516c-5.071,1.012-8.776,2.863-13.583,4.376c-4.646,1.461-7.161,2.595-11.115,5.487
		c-6.34,4.637-11.733,3.714-18.912,4.861c-5.415,0.865-10.717,3.886-16.061,4.648c-5.95,0.849-12.609,0.565-18.436,0.6
		c-6.113,0.035-10.779-1.481-16.615-2.611c-4.79-0.927-9.71-0.901-14.268-2.111c-5.14-1.365-10.369-1.535-15.595-2.377
		c-5.799-0.935-11.173-4.191-16.473-6.527c-9.407-4.146-15.716-9.98-25.538-12.084c-8.969-1.921-11.275-8.851-19.338-10.987
		c-5.092-1.35-11.586-3.532-15.604-7.036c-3.343-2.913-3.186-7.639-6.409-10.525c-2.779-2.489-6.92-2.791-10.123-4.379
		c-3.858-1.914-6.247-6.299-10.055-8.957c-1.684-1.175-3.862-2.032-5.584-3.404c-1.395-1.112-2.286-2.876-3.365-3.747
		c-1.664-1.344-6.884-5.394-8.438-5.451c-3.129-4.456-1.443-2.922-4.773-6.976c-3.336-4.062-7.852-9.165-7.125-15.75
		c0.874-7.916,6.352,1.085,9.375,4.438c2.342,2.598,8.292,6.192,8.25,9.813c3.608,2.502,2.432,1.949,5.287,4.965
		c3.563,3.762,9.526,5.917,12.424,9.573c2.082,2.626,2.098,4.354,5.1,6.401c2.147,1.464,4.686,3.164,7.266,4.259
		c4.553,1.932,10.137,2.466,15.135,3.839c9.048,2.483,17.086,3.826,25.988-0.6c3.277-1.63,6.9-3.496,9.086-5.752
		c3.09-3.191,2.235-7.135,4.291-11.135c1.427-2.775,5.745-8.082,3.51-11.887c-1.132-1.927-6.266-4.189-7.885-6.116
		c-2.854-3.396-5.359-4.061-9.402-6.608c-1.089-0.686-3.871-2.218-4.648-3.229c-1.21-1.571-1.121-3.696-2.602-5.021
		c-3.158-2.825-10.639-1.327-14.635-1.125c-5.17,0.261-7.514-0.437-12.004-2.623c-7.325-3.566-11.959-10.665-14.211-17.864
		c-2.394-7.649-7.418-14.662-8.537-22.989c-1.123-8.344-2.698-16.328-3.549-24.951c-0.471-0.114-0.881-0.035-1.354-0.146
		c-0.773-1.521-1.116-2.945-1.148-4.852c-1.957-0.1-4.473-0.454-6.424-0.076c-1.869,0.362-3.519,2.117-5.1,2.4
		c-4.839,0.869-6.832-3.823-10.277-4.049c-4.369-0.287-0.968,0.962-1.613,3.648c-0.523,2.178-1.383,3.482-2.119,5.5
		c-1.477,4.041-3.072,6.566-5.477,10.414c-0.467,0.189-0.863-0.018-1.33,0.171c-0.521,1.742-1.689,2.966-3.497,3.502
		c-0.456,7.806,0.663,15.393,1.802,22.524c1.205,7.547,3.431,14.022,3.035,21.813c-4.078,0.868-4-1.697-5.424-3.925
		c-0.95-1.485-0.668-2.217-2.109-3.889c-0.781-0.905-2.086-1.247-2.863-2.25c-2.581-3.332-1.672-13.006-5.44-14.448
		c-0.187-3.188-0.156-6.512-0.023-9.728c-6.589,1.207-10.569-12.619-12.173-17.186c-1.267-3.607-2.129-8.147-3.877-11.498
		c-2.006-3.848-4.006-4.23-4.014-9.028c-0.007-3.838,0.541-8.373,2.238-11.861c1.427-2.931,2.753-3.603,3.262-6.979
		c0.566-3.757,0-8.028,0-11.836c0-9.781-0.51-19.104,0-28.824c0.631-12.01,2.133-21.434,6.913-31.998
		c1.095-2.419,1.333-5.063,2.554-7.196c1.538-2.69,4.401-4.726,6.174-7.146c3.8-5.189,5-11.617,7.009-17.82
		c2.28-7.041,6.226-9.516,9.452-15.862c3.141-6.177,2.609-14.082,6.5-19.962c3.016-4.559,7.928-9.179,12.51-12.391
		c3.229-2.262,2.945-1.611,4.879-5.588c1.344-2.764,2.594-6.671,5.411-8.081c1.286-5.148,7.715-8.79,11.599-12.442
		c3.385-3.184,8.959-8.606,13.953-8.062c0.393-1.385,6.086-6.917,7.574-7.936c1.715-1.174,4.738-0.577,6.508-1.563
		c1.454-0.809,2.127-2.402,3.354-3.566c5.698-5.41,15.105-10.248,22.797-12.224c10.655-2.739,21.102-5.145,31.703-7.763
		c5.031-1.243,9.457-3.203,14.725-4.5c10.392-2.558,20.888-3.348,31.338-5.303c8.6-1.609,15.809-0.341,24.549,0.929
		c5.867,0.852,12.103-0.528,18.01-0.012c6.155,0.538,12.36,1.965,18.474,3.384c7.151,1.66,14.354,2.856,21.209,5.276
		c5.692,2.01,11.286,5.242,17.173,6.963c6.526,1.907,15.587,1.988,22.466,2.277c9.555,0.402,17.976,2.073,25.716,7.608
		c6.102,4.364,8.979,9.292,11.965,16.39c2.356,5.601,4.319,13.343,8.101,18.021c2.553,3.159,6.443,4.478,9.274,6.619
		c4.992,3.777,10.755,8.577,14.155,14.206c3.147,5.21,4.854,10.36,8.597,15.021c2.136,2.66,3.916,4.992,5.725,7.729
		c3.572,5.411,7.904,9.017,11.26,14.127c6.957,10.598,7.933,20.053,7.877,32.508c-0.057,12.843,5.529,21.995,7.486,34.083
		c1.157,7.145,0.596,13.914,0.514,21.216C544.955,338.399,545.651,341.859,546.434,345.265z"/>
</g>
<g id="Layer_2">
</g>
</svg>
